<svg xmlns="http://www.w3.org/2000/svg" viewBox="0 0 24 24" fill="#ffffff"><path d="M10.46 19.61a4.46 4.46 0 0 1-7.93-2.98l.07-.56h2.44a2.15 2.15 0 0 0 4.06.84l.65-1.15-3.18-5.52a4.46 4.46 0 0 1 7.72-4.45l.28.49-2.12 1.22-.28-.48a2.15 2.15 0 0 0-3.72 2.15l3.18 5.51a4.44 4.44 0 0 1-1.17 5.93zm10.97-3.98a4.46 4.46 0 0 1-3.97 2.44h-1.3l-3.18-5.52a4.46 4.46 0 0 1 3.97-6.7h.56v2.45a2.15 2.15 0 0 0-1.92 3.23l1.59 2.76h2.28a2.15 2.15 0 1 0 0-4.3h-.24l-1.22-2.12h1.46a4.46 4.46 0 0 1 1.97 7.76z"/></svg>
