<svg xmlns="http://www.w3.org/2000/svg" viewBox="0 0 24 24" fill="#ffffff"><path d="M20.625 6.547h-1.406V5.14a2.108 2.108 0 1 0-2.16-.048v1.454h-1.872a.937.937 0 0 0-.937.938v5.625a3.75 3.75 0 0 0 3.516 3.74v2.587a1.313 1.313 0 0 1-1.313 1.313h-3.14a1.313 1.313 0 0 1-1.313-1.313v-3.075A4.688 4.688 0 0 0 16.5 11.86V7.484a1.875 1.875 0 0 0-1.875-1.875H5.375A1.875 1.875 0 0 0 3.5 7.484v4.375a4.688 4.688 0 0 0 4.063 4.646v2.932A2.25 2.25 0 0 0 9.813 21.7h3.14a2.25 2.25 0 0 0 2.25-2.25v-2.59A3.75 3.75 0 0 0 18.75 13.5v-.422a2.812 2.812 0 0 0 2.813-2.812V7.484a.937.937 0 0 0-.938-.937zM10 3.609a1.828 1.828 0 1 1-1.828 1.828A1.828 1.828 0 0 1 10 3.609zm4.625 8.25A3.75 3.75 0 0 1 7.5 13.39v-.89h1.875v-2.344a.469.469 0 0 1 .469-.469h.312a.469.469 0 0 1 .469.469V12.5h.75v-2.344a.469.469 0 0 1 .469-.469h.312a.469.469 0 0 1 .469.469V12.5H14.5v.891a3.73 3.73 0 0 1-.875 1.468v-2.5z"/></svg>
